# xmcd
#
# Track frame offsets:
# 150
# 12906
# 26934
# 37648
# 52846
# 69174
# 81582
# 98903
# 110974
# 120650
#
# Disc length: 1805 seconds
#
#
# Revision: 0
# Processed by: cddbd v1.5.1PL0 Copyright (c) Steve Scherf et al.
# Submitted via: FreeRIP 2.90 
#
DISCID=7c070b0a
DTITLE=Kinky Freidman - Kinky Friedman
DYEAR=1974
DGENRE=Country
TTITLE0=Rapid City South Dakota
TTITLE1=Popeye the Sailor Man
TTITLE2=Homo Erectus
TTITLE3=The Wild Man From Borneo
TTITLE4=Before all Hell Breaks Lose
TTITLE5=Something's Wrong with the Beaver
TTITLE6=When the Lord Closes the Door
TTITLE7=Miss Nickelodeon
TTITLE8=Autograph
TTITLE9=They aint makin' Jews like Jesus Anymore
EXTD=
EXTT0=
EXTT1=
EXTT2=
EXTT3=
EXTT4=
EXTT5=
EXTT6=
EXTT7=
EXTT8=
EXTT9=
PLAYORDER=
